<?xml version="1.0" encoding="utf-8"?>
<!-- Generator: Adobe Illustrator 18.1.0, SVG Export Plug-In . SVG Version: 6.00 Build 0)  -->
<svg version="1.1" id="Calque_1" xmlns="http://www.w3.org/2000/svg" xmlns:xlink="http://www.w3.org/1999/xlink" x="0px" y="0px"
	 viewBox="0 0 159 183.3" enable-background="new 0 0 159 183.3" xml:space="preserve">
<g>
	<path fill="#5B6782" d="M79.9,9.1c24.5,14.1,49.9,27.3,73.9,41.9c0,27.3,0,54.5,0,81.8c-11.5,7.9-24.4,14.2-36.7,21.1
		c-12.4,6.9-24.6,14.2-37.2,20.7C55.1,161,30.2,147.3,5.9,133c0-27.3,0-54.8,0-82.1C29.9,36.3,55.4,23.2,79.9,9.1z M78.8,12.6
		C55.6,26.5,30.6,37.8,8.4,52.5c0,26.5,0,52.9,0,79.4C32,145.6,56.3,158.6,80,172.2c23.6-13.9,48.5-26.4,71.6-40.7
		c0-26.5,0-52.9,0-79.4C128.1,38.3,103.8,25.2,80,11.8C79.4,11.9,79.1,12.3,78.8,12.6z"/>
	<path fill="#FFFFFF" d="M79.9,11.8C103.7,25.2,128,38.3,151.5,52c0,26.5,0,52.9,0,79.4c-23.2,14.3-48,26.9-71.6,40.7
		c-23.7-13.6-48-26.6-71.6-40.3c0-26.5,0-52.9,0-79.4c22.3-14.7,47.3-26,70.4-39.9C79.1,12.3,79.4,11.9,79.9,11.8z M79.5,19.2
		C59.6,30.7,39.2,41.8,19.6,53.6c19.8,11.3,40,22,59.4,33.7c5.9-3.1,11.8-6.1,17.2-9.8c-14-8.1-28.7-15.3-41.9-24.3
		c14.1-7.7,27.4-16.1,41.5-23.9C91.1,25.3,85.3,22.4,79.5,19.2z M122.2,71.7c-7.2,11-14,24.3-21.1,34c0-7.2,0-14.3,0-21.5
		c-6.3,2.8-11.8,6.4-18,9.4c1.1,21.7-0.4,46,0.7,67.7c5.4-3.8,12.2-6.3,17.2-10.6c0-7.5,0-15.2,0-22.7c7.1,3.7,14,7.7,20.7,11.7
		c8.2-3.9,15.8-8.5,23.4-12.9c-9.8-5.9-19.4-11.9-28.9-18c9.3-16.2,19.7-33.5,28.2-49.3C137.2,63.7,129.7,67.7,122.2,71.7z
		 M58.8,104.5c0,11.2,1.6,20.7-7.4,21.5c-11.2,0.9-18.5-12.6-18.8-24.3c-6-3.1-11.3-7.1-17.2-10.1c-1,13.3,4.7,25.5,11.7,35.3
		c6.8,9.3,15.2,18,25.9,21.1c2.9,0.8,6.2,1,8.7,0.7c20-2.3,13.9-33,14.9-55.2c-6-2.9-11.3-6.6-17.6-9.4
		C58.8,90.2,58.8,96.6,58.8,104.5z"/>
	<path fill="#5B6782" d="M96,29.4c-14,7.7-27.3,16.2-41.5,23.9c13.2,8.8,27.9,16.2,41.9,24.3C91,81.2,85,84.3,79.1,87.4
		C59.7,75.8,39.5,64.9,19.7,53.6c19.6-11.8,39.9-23,59.9-34.4C85.3,22.4,91.1,25.3,96,29.4z"/>
	<path fill="#5B6782" d="M58.8,84.2c6.2,2.7,11.5,6.4,17.6,9.4c-1,22.1,5.1,52.8-14.9,55.2c-2.4,0.3-5.8,0-8.7-0.7
		C42.1,145,33.8,136.2,27,126.9c-6.9-9.9-12.6-22-11.6-35.3c6,3.2,11.2,7.1,17.2,10.1c0.3,11.7,7.6,25.2,18.8,24.3
		c9-0.7,7.4-10.3,7.4-21.5C58.8,96.6,58.8,90.2,58.8,84.2z"/>
	<path fill="#5B6782" d="M144.5,59.5c-8.5,15.8-18.8,33.1-28.2,49.3c9.5,6.1,19.2,12.1,28.9,18c-7.6,4.5-15.3,9-23.4,12.9
		c-6.8-4-13.7-8-20.7-11.7c0,7.5,0,15.2,0,22.7c-5,4.2-11.8,6.7-17.2,10.6c-1.1-21.7,0.4-46-0.7-67.7c6.1-3,11.6-6.6,18-9.4
		c0,7.2,0,14.3,0,21.5c7.1-9.8,14-23.1,21.1-34C129.7,67.7,137.2,63.7,144.5,59.5z"/>
</g>
<rect x="-571.1" y="272.7" fill="none" width="558.1" height="199.3"/>
<text transform="matrix(1 0 0 1 -540.0854 339.5671)" fill="#5B6782" font-family="'Helvetica-Bold'" font-size="93.0125">%NUMBUR</text>
<polygon fill="none" points="-533.9,472 -13,472 -13,793.5 -533.9,793.6 "/>
<text transform="matrix(1 0 0 1 -533.8999 544.5369)" fill="#5B6782" font-family="'HelveticaNeue-Bold'" font-size="39.0653">%USER1</text>
<text transform="matrix(1 0 0 1 -533.8999 604.0642)" fill="#5B6782" font-family="'HelveticaNeue-Bold'" font-size="39.0653">%USER2</text>
</svg>
